<?xml version="1.0" encoding="utf-8"?>
<!-- Generator: Adobe Illustrator 27.7.0, SVG Export Plug-In . SVG Version: 6.00 Build 0)  -->
<svg version="1.1" xmlns="http://www.w3.org/2000/svg" xmlns:xlink="http://www.w3.org/1999/xlink" x="0px" y="0px"
	 viewBox="0 0 200 200" style="enable-background:new 0 0 200 200;" xml:space="preserve">
<style type="text/css">
	.st0{fill:#16717E;}
	.st1{fill:none;stroke:#0E727F;stroke-width:3;stroke-miterlimit:10;}
	.st2{fill:#FFFFFF;stroke:#0E727F;stroke-width:3;stroke-miterlimit:10;}
	.st3{fill:none;stroke:#FFFFFF;stroke-width:5;stroke-miterlimit:10;stroke-dasharray:2;}
	.st4{fill:#FFFFFF;}
</style>
<g id="Layer_2">
	<circle class="st0" cx="100" cy="100" r="95"/>
</g>
<g id="Layer_1">
	<g>
		<path class="st1" d="M115.9,116.9c0.5,4.5,1.4,8.9,2.7,13.2l3.3,12.8"/>
		<path class="st2" d="M78.3,143l3.3-12.7c1.1-4.3,1.9-8.8,2.3-13.2"/>
		<path class="st2" d="M100,99.7V110l26.9,11.7c1.8,0.7,3.9,0.4,5.5-0.7c1.5-1.3,2.2-3.4,1.7-5.4l-6.5-26.1c-1-3.6-3.6-6.5-7.2-7.7
			c-13.3-4.1-27.5-4.1-40.8,0C76,83,73.3,86,72.4,89.6l-6.5,26.2c-0.5,2,0.1,4,1.7,5.4c1.5,1.4,3.7,1.7,5.5,0.7L100,110V99.7"/>
		<path class="st2" d="M110.6,57.9c0,5.8-4.6,10.5-10.4,10.6S89.7,63.8,89.7,58v-8.1c0.2-5.7,4.8-10.2,10.5-10.2
			c5.7,0,10.2,4.6,10.3,10.2V50L110.6,57.9z"/>
		<path class="st3" d="M118.2,42.6c24.9,7.9,41.8,31,41.8,57.1c-0.1,11.1-3.1,21.9-8.8,31.4"/>
		<path class="st3" d="M48.8,131.1C31.6,102.9,40.4,66,68.6,48.6c4.1-2.5,8.5-4.5,13.1-6.1"/>
		<path class="st3" d="M118.2,53.6c18.8,7.5,31.2,25.8,31.2,46.1c0.1,11.5-3.9,22.7-11.3,31.4"/>
		<path class="st3" d="M61.7,131.1C44.3,110,47.3,78.7,68.4,61.3c3.9-3.3,8.3-5.9,13.1-7.7"/>
		<line class="st1" x1="115.6" y1="94.4" x2="115.6" y2="104.9"/>
		<line class="st1" x1="84.4" y1="94.4" x2="84.4" y2="104.9"/>
		<path class="st2" d="M100,147l-42.5-7.6c-5.7-1.1-11.2,2.6-12.4,8.3c-1.1,5.7,2.6,11.2,8.3,12.4c0.1,0,0.2,0,0.2,0l0,0
			c0.7,0,1.2,0.3,1.9,0.3h31.3"/>
		<path class="st2" d="M86.1,149.3l56.4-10.3c5.7-1.1,11.2,2.6,12.4,8.3c1.1,5.7-2.6,11.2-8.3,12.4c-0.1,0-0.1,0-0.2,0l0,0
			c-0.7,0-1.2,0.3-1.9,0.3H87c-3,0-5.4-2.4-5.4-5.4l0,0C81.6,151.9,83.5,149.7,86.1,149.3z"/>
		<path class="st4" d="M117.6,143H93.1c-18.7,2.6-11.4-3.4-11.4-12.7l1.4-4.1c2.2-8.6,3.3-8.3,10-12.8l5.2-1.4
			c9.3,0,19.7,4.8,19.7,14.1l0,0C117.9,135.4,126.9,143,117.6,143z"/>
	</g>
</g>
</svg>
